<svg xmlns="http://www.w3.org/2000/svg" xmlns:xlink="http://www.w3.org/1999/xlink" viewBox="0 0 1814 348"><defs><style>.a{fill:none;}.b{fill:#c3002f;}.c{fill:#004071;}.d{fill:#b2d235;}.e{fill:#fff;}.f{clip-path:url(#a);}</style><clipPath id="a"><rect class="a" x="1392.49" y="74.67" width="421.51" height="201.12"/></clipPath></defs><title>property_ladiesArtboard 2</title><path class="b" d="M517.84,170V30h46.49c14.77,0,26,1,35.46,7.68C612.19,46.32,618.7,59.51,618.7,77c0,18.12-8.27,33.09-22.26,41.56-8.86,5.32-19.89,6.3-34.47,6.3h-9.85V170Zm41-75.44c16.94,0,25.21-4.34,25.21-16.94,0-11.62-7.29-16.35-22.46-16.35h-9.06V94.58Z"/><path class="b" d="M655.72,64.24V78.62q7.68-16,26.59-16V91.43h-.79c-19.7,0-23.83,6.7-23.83,26.2V170H626.18V64.24Z"/><path class="b" d="M697.68,78a55.27,55.27,0,0,1,39-16.55c15.36,0,28.56,5.32,39.2,15.37a55,55,0,0,1,17.33,39.59c0,16-5.32,29.15-16,39.79a54.83,54.83,0,0,1-40.18,16.54c-16.15,0-29.15-5.51-40-16.94a55.29,55.29,0,0,1-15.56-39A54.22,54.22,0,0,1,697.68,78Zm39.59,65.2c13.79,0,25-11.62,25-26,0-14.58-11.23-26.2-25-26.2s-25,11.62-25,26.2C712.25,131.61,723.68,143.23,737.27,143.23Z"/><path class="b" d="M829.45,204.29H798.33V64.24h29.55V76.65c9.06-9.65,18.71-13.4,31.91-13.4a48,48,0,0,1,33.09,12.41c12.21,10.83,18.52,25,18.52,41.56a54.08,54.08,0,0,1-16.94,39.59A49,49,0,0,1,859.2,171.2c-12.8,0-22.65-4.33-29.74-13.39Zm24.43-60.67a26.36,26.36,0,0,0,26.39-26.2c0-14.77-11.42-26-27.38-26-13.39,0-24.62,11-24.62,25.6C828.27,132.2,839.3,143.63,853.88,143.63Z"/><path class="b" d="M1021.74,139.29c-10.24,22.06-27.78,33.29-51.41,33.29-16.15,0-29.15-5.52-40-16.94a55.74,55.74,0,0,1-15.56-39.2,54.23,54.23,0,0,1,16.15-38.81,55.27,55.27,0,0,1,39-16.55c33.68,0,56.73,24.23,56.73,63.63v3.35H946.89c2.76,11.23,10.83,17.14,24.43,17.14a23.1,23.1,0,0,0,16.15-5.91ZM995.35,106c-3.74-10.83-12.61-16.74-25-16.74-13,0-22.26,6.7-24.43,16.74Z"/><path class="b" d="M1060.74,64.24V78.62q7.68-16,26.59-16V91.43h-.79c-19.7,0-23.83,6.7-23.83,26.2V170H1031.2V64.24Z"/><path class="b" d="M1093.31,87.49V64.24h13.4V30h31.52V64.24h14V87.49h-14V170h-31.52V87.49Z"/><path class="b" d="M1176.83,204.29l16-40.77L1154,64.24h34.47l19.89,61.65,22.46-61.65h33.48l-56.14,140.05Z"/><path class="c" d="M624.24,331.51V191.46h34.08V300.58h40v30.93Z"/><path class="c" d="M781.32,319.69c-9.26,9.06-18.71,12.41-31.32,12.41a48,48,0,0,1-33.09-12.41c-12.21-10.83-18.52-25-18.52-41.56a53.64,53.64,0,0,1,16.94-39.4,49.14,49.14,0,0,1,35.26-14.58c12.8,0,22.65,4.33,29.74,13.39V225.73h31.12V331.51H781.32ZM756.9,303.93c13.4,0,24.62-11,24.62-25.6,0-15.17-11.23-26.6-25.8-26.6a26.19,26.19,0,0,0-26.2,26.2C729.52,292.71,740.94,303.93,756.9,303.93Z"/><path class="c" d="M899.51,319.69c-9.26,9.06-18.71,12.41-31.32,12.41a48,48,0,0,1-33.09-12.41c-12.21-10.83-18.52-25-18.52-41.56a53.64,53.64,0,0,1,16.94-39.4,49.14,49.14,0,0,1,35.26-14.58c12.8,0,22.65,4.33,29.74,13.39V191.46h31.12V331.51H899.51Zm-24.43-15.76c13.4,0,24.62-11,24.62-25.6,0-15.17-11.23-26.6-25.8-26.6a26.19,26.19,0,0,0-26.2,26.2C847.71,292.71,859.13,303.93,875.08,303.93Z"/><path class="c" d="M937.72,216.08V191.46h30.93v24.62Zm0,115.43V225.73h30.93V331.51Z"/><path class="c" d="M1081.32,300.78c-10.24,22.06-27.78,33.29-51.41,33.29-16.15,0-29.15-5.52-40-16.94a55.75,55.75,0,0,1-15.56-39.2,54.22,54.22,0,0,1,16.15-38.81,55.28,55.28,0,0,1,39-16.55c33.68,0,56.73,24.23,56.73,63.63v3.35h-79.77c2.76,11.23,10.83,17.14,24.43,17.14a23.1,23.1,0,0,0,16.15-5.91Zm-26.4-33.29c-3.74-10.83-12.61-16.74-25-16.74-13,0-22.26,6.7-24.43,16.74Z"/><path class="c" d="M1117.82,300v1c0,5.91,4.73,10,11.42,10s10.64-3.35,10.64-9.25c0-8.67-8.47-8.28-21.67-12.41-18.32-5.71-27.18-15.56-27.18-31.51,0-20.68,15.17-35.26,40.38-35.26,21.86,0,35.85,12.41,37,32.5h-28.17c-1.18-6.89-3.74-9.85-9.26-9.85-6.11,0-9.65,3.55-9.65,8.67,0,7.29,6.5,9.06,17.33,12,21.67,5.91,32.5,14.19,32.5,31.72,0,21.27-16.74,36.63-42.35,36.63-23.64,0-38.21-12.8-40.38-34.27Z"/><path class="c" d="M628.31,25.15h-8.79V16.7h27.58v8.45H638.3V46.58h-10Z"/><path class="c" d="M651.8,16.7h10V27.24h9.14V16.7h10V46.58h-10V35.87h-9.14V46.58h-10Z"/><path class="c" d="M686.77,16.7h25.48v8.2H696.59v3h14.6v7.21h-14.6v3.24h15.88v8.2h-25.7Z"/><circle class="d" cx="138.61" cy="140.43" r="70.98"/><polygon class="b" points="416.34 332.6 416.34 219.51 351.69 175.23 286.27 219.57 286.27 332.6 416.34 332.6"/><path class="e" d="M384.94,239.34a20,20,0,0,0-22.8-1.81c-4.41,2.6-7.29,6.42-9.18,11.55-.57-1.22-.94-2.05-1.34-2.88-4.27-8.87-14.68-13.51-23.68-10.56-10.12,3.32-16.11,12.63-13.88,22.71a34.38,34.38,0,0,0,5.15,11.47c8.46,12.52,20.14,21.7,32.49,30.08a3.11,3.11,0,0,0,2.85-.3c7.44-5.89,15.06-11.59,22.08-18,6.41-5.82,11.93-12.53,14.65-21A19.75,19.75,0,0,0,384.94,239.34Z"/><path class="c" d="M471.77,292V189.31l-35.61-24.39v-47.7H396.51v20.55L351.9,107.21l-89.64,60.74A126.69,126.69,0,1,0,11.91,140.43c0,63.15,46.45,115.65,107,125.15V292h-41V332.6H274.66V212.48l77.1-52.25,76.18,52.18V332.6h89.9V292ZM118.89,220.84a82.88,82.88,0,1,1,39.44,0V168.93H118.89Zm112,71.21H158.33V265.59a126.53,126.53,0,0,0,72.51-38.42Z"/><path class="b" d="M1778.77,274.13l-.77-2a1.14,1.14,0,0,0,.51-1.05c0-.73-.53-1.18-1.37-1.18h-1.06v4.19h.59v-1.88h.73l.75,1.88Zm-2.11-2.36v-1.32h.4c.58,0,.82.25.82.64s-.19.68-.82.68Z"/><path class="b" d="M1777.3,275.79a3.8,3.8,0,1,1,3.81-3.81,3.82,3.82,0,0,1-3.81,3.81m0-7.13a3.32,3.32,0,1,0,3.31,3.32,3.33,3.33,0,0,0-3.31-3.32"/><polygon class="b" points="1576.7 236.54 1566.47 268.3 1554.15 236.74 1550.98 236.74 1565.8 275.47 1567.19 275.47 1577.79 241.32 1588.56 275.47 1589.95 275.47 1604.7 236.74 1601.46 236.74 1589.31 268.27 1578.95 236.54 1576.7 236.54 1576.7 236.54"/><polygon class="b" points="1617.48 236.7 1617.48 275.15 1636.29 275.15 1636.29 272.67 1620.46 272.67 1620.46 236.7 1617.48 236.7 1617.48 236.7"/><polygon class="b" points="1641.78 236.7 1641.78 275.15 1660.59 275.15 1660.59 272.67 1644.74 272.67 1644.74 236.7 1641.78 236.7 1641.78 236.7"/><polygon class="b" points="1665.83 275.15 1668.81 275.15 1668.81 236.71 1665.83 236.71 1665.83 275.15 1665.83 275.15"/><polygon class="b" points="1609.01 275.15 1612.01 275.15 1612.01 236.71 1609.01 236.71 1609.01 275.15 1609.01 275.15"/><path class="b" d="M1688.92,236.5,1673,275.15h2.77l5.45-13.28H1698l5.43,13.28h2.79l-15.89-38.65Zm.69,4.83,7.42,18.07h-14.78l7.36-18.07Z"/><polygon class="b" points="1742.63 236.78 1728.01 254.62 1713.38 236.78 1710.4 236.78 1710.4 275.15 1713.38 275.15 1713.38 241.12 1713.49 241.12 1728.01 259.05 1742.51 241.12 1742.63 241.12 1742.63 275.15 1745.62 275.15 1745.62 236.78 1742.63 236.78 1742.63 236.78"/><path class="b" d="M1770.28,243a10.42,10.42,0,0,0-8.53-3.89c-4.61,0-8.09,3.16-8.09,7.33,0,10.23,18.27,5.34,18.27,18.79,0,5.9-4.89,10.51-11.14,10.51a15.9,15.9,0,0,1-9.84-3.38v-3.48c3.74,3.55,6.7,4.11,9.68,4.11a7.76,7.76,0,0,0,8.09-7.65c0-10.91-18.27-6.14-18.27-18.79,0-5.67,4.94-10.17,11-10.19,3.09,0,7,1.27,8.81,3.37V243Z"/><polygon class="b" points="1454.88 236.82 1454.88 275.26 1474.64 275.26 1474.64 270.29 1460.4 270.29 1460.4 236.82 1454.88 236.82 1454.88 236.82"/><polygon class="b" points="1478.17 236.82 1478.17 275.26 1497.93 275.26 1497.93 270.29 1483.7 270.29 1483.7 236.82 1478.17 236.82 1478.17 236.82"/><polygon class="b" points="1501.49 236.82 1501.49 275.26 1523.82 275.26 1523.82 270.29 1507.02 270.29 1507.02 258.35 1522.75 258.35 1522.75 253.39 1507.02 253.39 1507.02 241.78 1523.31 241.78 1523.31 236.82 1501.49 236.82 1501.49 236.82"/><path class="b" d="M1552.18,275.25l-7.12-18c4.23-3.5,4.71-5.87,4.66-9.72-.06-6.65-4.84-10.76-12.62-10.76h-9.69v38.44h5.53V258.07s4.56,0,6.58,0l6.95,17.18Zm-19.24-21.63V241.56h3.55c5.35,0,7.5,2.2,7.56,5.8.06,3.22-1.64,6.26-7.56,6.26Z"/><polygon class="b" points="1428.99 236.82 1428.99 275.19 1451.27 275.19 1451.27 270.23 1434.51 270.23 1434.51 258.31 1450.2 258.31 1450.2 253.36 1434.51 253.36 1434.51 241.78 1450.77 241.78 1450.77 236.82 1428.99 236.82 1428.99 236.82"/><g class="f"><polygon class="b" points="1419.16 236.82 1417.21 238.93 1403.06 254.33 1403.06 236.82 1397.55 236.82 1397.55 275.12 1403.06 275.12 1403.06 261.97 1409.19 255.25 1417.22 275.13 1422.91 275.13 1422.91 275.12 1420.91 270.18 1413.12 250.93 1421.5 241.76 1426.01 236.82 1419.16 236.82 1419.16 236.82"/><polygon class="b" points="1392.44 74.67 1392.44 219.52 1412.65 219.52 1412.65 185.54 1427.47 170.81 1448.08 219.52 1468.56 219.52 1441.34 154.89 1460.45 133.72 1497.51 219.52 1505.29 219.52 1533.09 153.16 1561.35 219.52 1569.01 219.52 1611.36 121.83 1590.63 121.83 1565.13 181.1 1540.41 121.83 1526.11 121.83 1501.18 181.1 1475.54 121.83 1448.66 121.83 1412.65 157.77 1412.65 74.67 1392.44 74.67 1392.44 74.67"/></g><path class="b" d="M1653.3,151.94v.92c0,7.9-3.18,15.61-13.47,15.61-11,0-14.45-7.1-14.45-22.71S1628.82,123,1639.9,123c12.43,0,13.16,9.18,13.16,13.71v.8h-7v-.73c0-4-1.22-8.69-6.24-8.51-5.14,0-7.47,3.18-7.47,17.26s2.33,17.63,7.47,17.63c5.82,0,6.49-6.49,6.49-10.53v-.73Z"/><path class="b" d="M1675.77,151.32l-5-21.55h-.12l-5.2,21.55Zm-9.3-27.42h8.94l11.51,43.71h-7.28l-2.69-10.71h-12.79l-2.82,10.71H1654l12.43-43.71Z"/><path class="b" d="M1697,144.29h5c3.73,0,7-2,7-7.53,0-4.71-1.9-7.59-7.47-7.59H1697v15.12Zm-7-20.38h13.83c8.39,0,12.06,5.26,12.06,12.73,0,7.84-4.59,12.92-12.79,12.92H1697v18.06h-7V123.9Z"/><polygon class="b" points="1720.28 123.9 1727.26 123.9 1727.26 167.61 1720.28 167.61 1720.28 123.9 1720.28 123.9"/><polygon class="b" points="1741.34 129.78 1730.93 129.78 1730.93 123.9 1758.54 123.9 1758.54 129.78 1748.31 129.78 1748.31 167.61 1741.34 167.61 1741.34 129.78 1741.34 129.78"/><path class="b" d="M1776.72,151.32l-5-21.55h-.12l-5.2,21.55Zm-9.3-27.42h8.94l11.51,43.71h-7.28l-2.69-10.71h-12.79l-2.82,10.71H1755l12.43-43.71Z"/><polygon class="b" points="1790.13 123.9 1797.11 123.9 1797.11 161.73 1814 161.73 1814 167.61 1790.13 167.61 1790.13 123.9 1790.13 123.9"/><path class="b" d="M1637.93,197.22c4.47,0,7-2.69,7-7.1,0-4.65-2-7.1-6.61-7.1h-5.94v14.2Zm-12.55-19.47h15.42c6.12,0,11.08,3.06,11.08,11.26,0,5.63-2.51,10-7.28,10.71v.12c4.35.43,6.61,2.82,6.86,8.94.06,2.82.12,6.24.24,8.88a4.52,4.52,0,0,0,2.08,3.8h-7.9a7.37,7.37,0,0,1-1.16-3.86c-.25-2.63-.18-5.08-.31-8.26-.12-4.77-1.59-6.86-6.37-6.86h-5.69v19h-7V177.76Z"/><polygon class="b" points="1658.26 177.76 1681.89 177.76 1681.89 183.63 1665.24 183.63 1665.24 195.75 1680.91 195.75 1680.91 201.63 1665.24 201.63 1665.24 215.59 1682.38 215.59 1682.38 221.46 1658.26 221.46 1658.26 177.76 1658.26 177.76"/><path class="b" d="M1705.27,205.18l-5-21.55h-.12l-5.2,21.55Zm-9.3-27.42h8.94l11.51,43.71h-7.28l-2.69-10.71h-12.79l-2.82,10.71h-7.28L1696,177.76Z"/><polygon class="b" points="1718.68 177.76 1725.66 177.76 1725.66 215.59 1742.55 215.59 1742.55 221.46 1718.68 221.46 1718.68 177.76 1718.68 177.76"/><polygon class="b" points="1748.19 183.63 1737.78 183.63 1737.78 177.76 1765.39 177.76 1765.39 183.63 1755.16 183.63 1755.16 221.46 1748.19 221.46 1748.19 183.63 1748.19 183.63"/><polygon class="b" points="1776.78 204.38 1765.51 177.76 1773.29 177.76 1780.63 196.61 1788.16 177.76 1795.44 177.76 1783.75 204.38 1783.75 221.46 1776.78 221.46 1776.78 204.38 1776.78 204.38"/></svg>